<svg width="30" height="30" viewBox="0 0 30 30" fill="none" xmlns="http://www.w3.org/2000/svg">
<path d="M26.0401 5.69375C26.1657 5.5055 26.2378 5.28668 26.2488 5.06065C26.2598 4.83461 26.2092 4.60983 26.1024 4.41029C25.9957 4.21076 25.8367 4.04395 25.6426 3.92766C25.4485 3.81137 25.2264 3.74997 25.0001 3.75H5.00009C4.77398 3.75012 4.55214 3.81156 4.35819 3.92778C4.16425 4.04401 4.00546 4.21066 3.89874 4.41C3.79201 4.60933 3.74136 4.83388 3.75216 5.05973C3.76296 5.28558 3.83482 5.50426 3.96009 5.6925L13.7501 20.3787V25H10.0001V27.5H20.0001V25H16.2501V20.3787L26.0401 5.69375ZM15.0001 17.7462L10.6688 11.25H19.3313L15.0001 17.7462ZM22.6651 6.25L20.9988 8.75H9.00134L7.33509 6.25H22.6651Z" fill="#838383"/>
</svg>
