<svg width="25" height="27" viewBox="0 0 25 27" fill="none" xmlns="http://www.w3.org/2000/svg">
<path d="M4.75 1L1 6V23.5C1 24.163 1.26339 24.7989 1.73223 25.2678C2.20107 25.7366 2.83696 26 3.5 26H21C21.663 26 22.2989 25.7366 22.7678 25.2678C23.2366 24.7989 23.5 24.163 23.5 23.5V6L19.75 1H4.75Z" stroke="white" stroke-width="2" stroke-linecap="round" stroke-linejoin="round"/>
<path d="M1 6H23.5" stroke="white" stroke-width="2" stroke-linecap="round" stroke-linejoin="round"/>
<path d="M17.25 11C17.25 12.3261 16.7232 13.5979 15.7855 14.5355C14.8479 15.4732 13.5761 16 12.25 16C10.9239 16 9.65215 15.4732 8.71447 14.5355C7.77678 13.5979 7.25 12.3261 7.25 11" stroke="white" stroke-width="2" stroke-linecap="round" stroke-linejoin="round"/>
</svg>
