<svg width="96" height="88" viewBox="0 0 96 88" fill="none" xmlns="http://www.w3.org/2000/svg">
<path d="M86.6215 68.0676H68.0269C67.6685 68.0676 67.3248 67.9252 67.0713 67.6718C66.8179 67.4183 66.6755 67.0746 66.6755 66.7162C66.6755 66.3578 66.8179 66.0141 67.0713 65.7607C67.3248 65.5072 67.6685 65.3649 68.0269 65.3649H86.6215C86.9799 65.3649 87.3236 65.5072 87.577 65.7607C87.8305 66.0141 87.9728 66.3578 87.9728 66.7162C87.9728 67.0746 87.8305 67.4183 87.577 67.6718C87.3236 67.9252 86.9799 68.0676 86.6215 68.0676Z" fill="#6DC54A"/>
<path d="M45.1891 68.0676H30.5945C28.5154 68.0743 26.502 67.3398 24.9155 65.996C23.329 64.6522 22.2733 62.787 21.9378 60.7351L12.7743 5.75676H2.05399C1.69559 5.75676 1.35187 5.61438 1.09844 5.36096C0.845011 5.10753 0.702637 4.76381 0.702637 4.40541C0.702637 4.04701 0.845011 3.70328 1.09844 3.44986C1.35187 3.19643 1.69559 3.05405 2.05399 3.05405H13.9189C14.2387 3.0542 14.5482 3.16781 14.7922 3.37468C15.0361 3.58154 15.1988 3.86824 15.2513 4.18378L24.604 60.2932C24.8366 61.7127 25.5674 63.0029 26.6652 63.9324C27.763 64.8618 29.1561 65.3697 30.5945 65.3649H45.1891C45.5475 65.3649 45.8912 65.5072 46.1447 65.7607C46.3981 66.0141 46.5405 66.3578 46.5405 66.7162C46.5405 67.0746 46.3981 67.4183 46.1447 67.6718C45.8912 67.9252 45.5475 68.0676 45.1891 68.0676Z" fill="#6DC54A"/>
<path d="M58.5674 68.0676H54.6485C54.2901 68.0676 53.9464 67.9252 53.6929 67.6718C53.4395 67.4183 53.2971 67.0746 53.2971 66.7162C53.2971 66.3578 53.4395 66.0141 53.6929 65.7607C53.9464 65.5072 54.2901 65.3649 54.6485 65.3649H58.5674C58.9258 65.3649 59.2695 65.5072 59.5229 65.7607C59.7764 66.0141 59.9187 66.3578 59.9187 66.7162C59.9187 67.0746 59.7764 67.4183 59.5229 67.6718C59.2695 67.9252 58.9258 68.0676 58.5674 68.0676Z" fill="#6DC54A"/>
<path d="M67.4311 16.1487H15.6608C15.2976 16.1502 14.9482 16.0098 14.6872 15.7573C14.4261 15.5048 14.2741 15.1603 14.2635 14.7973C14.2584 14.6223 14.2884 14.4481 14.3517 14.2849C14.4149 14.1217 14.5101 13.9727 14.6317 13.8468C14.7534 13.721 14.8989 13.6206 15.0598 13.5518C15.2208 13.4829 15.3939 13.447 15.5689 13.446H67.4311C67.7895 13.446 68.1332 13.5883 68.3866 13.8418C68.64 14.0952 68.7824 14.4389 68.7824 14.7973C68.7824 15.1557 68.64 15.4994 68.3866 15.7529C68.1332 16.0063 67.7895 16.1487 67.4311 16.1487Z" fill="#6DC54A"/>
<path d="M22.4716 57.0473C22.1384 57.0472 21.8169 56.924 21.5689 56.7013C21.321 56.4785 21.1641 56.1721 21.1284 55.8407C21.0927 55.5093 21.1807 55.1765 21.3755 54.906C21.5703 54.6356 21.8582 54.4467 22.1838 54.3757L79.3351 41.8932V28.0541C79.3351 27.6957 79.4775 27.3519 79.7309 27.0985C79.9844 26.8451 80.3281 26.7027 80.6865 26.7027C81.0449 26.7027 81.3886 26.8451 81.642 27.0985C81.8955 27.3519 82.0378 27.6957 82.0378 28.0541V42.9811C82.0378 43.2895 81.9323 43.5886 81.7389 43.8287C81.5454 44.0689 81.2756 44.2357 80.9743 44.3013L22.7622 57.0162C22.6667 57.037 22.5693 57.0475 22.4716 57.0473Z" fill="#6DC54A"/>
<path d="M73.981 87.8203C72.4941 87.8203 71.0407 87.3794 69.8044 86.5533C68.5682 85.7273 67.6046 84.5532 67.0356 83.1795C66.4666 81.8059 66.3178 80.2944 66.6078 78.8361C66.8979 77.3778 67.6139 76.0383 68.6652 74.987C69.7166 73.9356 71.0561 73.2196 72.5144 72.9296C73.9726 72.6395 75.4841 72.7884 76.8578 73.3574C78.2315 73.9264 79.4056 74.8899 80.2316 76.1262C81.0576 77.3624 81.4985 78.8159 81.4985 80.3027C81.4964 82.2958 80.7037 84.2067 79.2943 85.616C77.885 87.0254 75.9741 87.8181 73.981 87.8203ZM73.981 75.4878C73.0287 75.4878 72.0978 75.7702 71.306 76.2993C70.5142 76.8283 69.897 77.5803 69.5326 78.4601C69.1682 79.3399 69.0728 80.308 69.2586 81.242C69.4444 82.176 69.903 83.0339 70.5763 83.7073C71.2497 84.3807 72.1076 84.8393 73.0416 85.025C73.9756 85.2108 74.9437 85.1155 75.8235 84.751C76.7033 84.3866 77.4553 83.7695 77.9844 82.9777C78.5134 82.1859 78.7958 81.255 78.7958 80.3027C78.7948 79.0259 78.2872 77.8017 77.3845 76.8988C76.4818 75.9958 75.2577 75.4879 73.981 75.4865V75.4878Z" fill="#6DC54A"/>
<path d="M40.6284 87.8203C39.1416 87.8203 37.6881 87.3794 36.4519 86.5533C35.2156 85.7273 34.2521 84.5532 33.6831 83.1795C33.1141 81.8059 32.9652 80.2944 33.2553 78.8361C33.5454 77.3778 34.2613 76.0383 35.3127 74.987C36.364 73.9356 37.7035 73.2196 39.1618 72.9296C40.6201 72.6395 42.1316 72.7884 43.5053 73.3574C44.8789 73.9264 46.053 74.8899 46.879 76.1262C47.7051 77.3624 48.146 78.8159 48.146 80.3027C48.1435 82.2957 47.3506 84.2064 45.9414 85.6156C44.5321 87.0249 42.6214 87.8178 40.6284 87.8203ZM40.6284 75.4878C39.6761 75.4878 38.7452 75.7702 37.9534 76.2993C37.1616 76.8283 36.5445 77.5803 36.1801 78.4601C35.8156 79.3399 35.7203 80.308 35.9061 81.242C36.0918 82.176 36.5504 83.0339 37.2238 83.7073C37.8972 84.3807 38.7551 84.8393 39.6891 85.025C40.6231 85.2108 41.5912 85.1155 42.471 84.751C43.3508 84.3866 44.1028 83.7695 44.6318 82.9777C45.1609 82.1859 45.4433 81.255 45.4433 80.3027C45.4422 79.0259 44.9346 77.8017 44.0319 76.8988C43.1292 75.9958 41.9052 75.4879 40.6284 75.4865V75.4878Z" fill="#6DC54A"/>
<path d="M64.9756 47.7581H64.8986C64.7212 47.7483 64.5476 47.7036 64.3876 47.6266C64.2275 47.5496 64.0842 47.4418 63.9659 47.3094C63.8475 47.177 63.7564 47.0226 63.6978 46.8549C63.6392 46.6873 63.6142 46.5098 63.6242 46.3325L65.4053 14.7108C65.4254 14.3524 65.587 14.0167 65.8546 13.7774C66.1223 13.5382 66.474 13.4151 66.8324 13.4351C67.1908 13.4552 67.5265 13.6168 67.7657 13.8845C68.005 14.1521 68.1281 14.5038 68.108 14.8622L66.3283 46.4838C66.3086 46.8289 66.1574 47.1534 65.9058 47.3904C65.6542 47.6274 65.3213 47.759 64.9756 47.7581Z" fill="#6DC54A"/>
<path d="M49.7823 51.0824C49.4239 51.0824 49.0801 50.94 48.8267 50.6866C48.5733 50.4332 48.4309 50.0895 48.4309 49.7311V14.7905C48.4309 14.4321 48.5733 14.0884 48.8267 13.835C49.0801 13.5816 49.4239 13.4392 49.7823 13.4392C50.1407 13.4392 50.4844 13.5816 50.7378 13.835C50.9912 14.0884 51.1336 14.4321 51.1336 14.7905V49.7311C51.1336 50.0895 50.9912 50.4332 50.7378 50.6866C50.4844 50.94 50.1407 51.0824 49.7823 51.0824Z" fill="#6DC54A"/>
<path d="M34.6917 54.3757C34.3463 54.3762 34.0137 54.2445 33.7624 54.0075C33.5111 53.7705 33.36 53.4462 33.3404 53.1013L31.1633 14.8676C31.1429 14.5092 31.2657 14.1573 31.5047 13.8895C31.7436 13.6216 32.0792 13.4596 32.4376 13.4392C32.796 13.4188 33.1479 13.5416 33.4158 13.7805C33.6836 14.0195 33.8456 14.3551 33.866 14.7135L36.0471 52.9473C36.0571 53.1245 36.0322 53.3019 35.9736 53.4695C35.9151 53.637 35.8241 53.7914 35.7059 53.9238C35.5877 54.0562 35.4446 54.164 35.2847 54.2411C35.1248 54.3181 34.9513 54.363 34.7741 54.373L34.6917 54.3757Z" fill="#6DC54A"/>
<path d="M80.6863 29.4054C77.7963 29.4057 74.9712 28.549 72.5681 26.9437C70.165 25.3383 68.2919 23.0565 67.1857 20.3866C66.0794 17.7168 65.7897 14.7789 66.3532 11.9444C66.9166 9.10988 68.3079 6.50611 70.3511 4.46232C72.3944 2.41853 74.9977 1.02651 77.8321 0.46228C80.6664 -0.101948 83.6044 0.186957 86.2746 1.29246C88.9447 2.39797 91.2271 4.27043 92.8331 6.67306C94.4391 9.07569 95.2966 11.9006 95.2971 14.7905C95.2932 18.6647 93.7527 22.3792 91.0136 25.119C88.2745 27.8589 84.5605 29.4004 80.6863 29.4054ZM80.6863 2.88514C78.3306 2.88487 76.0277 3.58322 74.0689 4.89187C72.1102 6.20051 70.5835 8.06066 69.682 10.237C68.7805 12.4134 68.5447 14.8083 69.0044 17.1187C69.4641 19.4291 70.5987 21.5513 72.2646 23.2168C73.9305 24.8824 76.053 26.0164 78.3635 26.4756C80.674 26.9348 83.0688 26.6985 85.245 25.7965C87.4212 24.8945 89.281 23.3674 90.5892 21.4083C91.8974 19.4493 92.5952 17.1462 92.5944 14.7905C92.5905 11.6335 91.3346 8.60694 89.1022 6.37458C86.8699 4.14223 83.8433 2.88637 80.6863 2.88243V2.88514Z" fill="#6DC54A"/>
<path d="M78.8417 19.6013C78.4833 19.6013 78.1397 19.4588 77.8863 19.2054L74.6552 15.9743C74.5262 15.8497 74.4232 15.7005 74.3524 15.5357C74.2816 15.3708 74.2443 15.1935 74.2427 15.014C74.2412 14.8346 74.2754 14.6567 74.3433 14.4906C74.4113 14.3245 74.5116 14.1736 74.6385 14.0468C74.7654 13.9199 74.9162 13.8195 75.0823 13.7516C75.2484 13.6836 75.4263 13.6494 75.6058 13.651C75.7852 13.6526 75.9625 13.6898 76.1274 13.7607C76.2923 13.8315 76.4414 13.9344 76.566 14.0635L78.8417 16.3392L84.8052 10.3757C84.9299 10.2466 85.079 10.1437 85.2439 10.0728C85.4087 10.002 85.5861 9.96473 85.7655 9.96317C85.9449 9.96161 86.1229 9.9958 86.289 10.0637C86.455 10.1317 86.6059 10.232 86.7328 10.3589C86.8597 10.4858 86.96 10.6367 87.028 10.8028C87.0959 10.9688 87.1301 11.1468 87.1286 11.3262C87.127 11.5056 87.0897 11.683 87.0189 11.8478C86.9481 12.0127 86.8451 12.1618 86.716 12.2865L79.7971 19.2054C79.672 19.3313 79.5231 19.4311 79.3591 19.4991C79.1951 19.5671 79.0192 19.6018 78.8417 19.6013Z" fill="#6DC54A"/>
</svg>
