<svg width="30" height="30" viewBox="0 0 30 30" fill="none" xmlns="http://www.w3.org/2000/svg">
<path d="M15 27.5C8.09625 27.5 2.5 21.9037 2.5 15C2.5 8.09625 8.09625 2.5 15 2.5C21.9038 2.5 27.5 8.09625 27.5 15C27.5 21.9037 21.9038 27.5 15 27.5ZM8.75 22.8063V16.25C8.75 15.587 9.01339 14.9511 9.48223 14.4822C9.95107 14.0134 10.587 13.75 11.25 13.75H18.75C19.413 13.75 20.0489 14.0134 20.5178 14.4822C20.9866 14.9511 21.25 15.587 21.25 16.25V22.8063C22.8673 21.5114 24.0425 19.7461 24.6132 17.7544C25.1838 15.7627 25.1218 13.643 24.4356 11.6881C23.7495 9.7332 22.473 8.03969 20.7828 6.8416C19.0925 5.64351 17.0718 5 15 5C12.9282 5 10.9075 5.64351 9.21723 6.8416C7.52695 8.03969 6.25053 9.7332 5.56436 11.6881C4.87819 13.643 4.81616 15.7627 5.38682 17.7544C5.95749 19.7461 7.13269 21.5114 8.75 22.8063Z" fill="#838383"/>
</svg>
