<svg width="30" height="30" viewBox="0 0 30 30" fill="none" xmlns="http://www.w3.org/2000/svg">
<path d="M23.7165 7.21172C20.9983 6.1043 18.146 5.625 15.0001 5.625C11.8542 5.625 8.78328 6.15234 6.27547 7.18828C5.80203 7.38164 5.38133 7.71562 5.68543 8.33086C5.93211 8.83066 11.8946 21.9727 14.1598 26.6602C14.2361 26.8185 14.3556 26.9521 14.5044 27.0456C14.6533 27.1391 14.8255 27.1887 15.0012 27.1887C15.177 27.1887 15.3492 27.1391 15.4981 27.0456C15.6469 26.9521 15.7664 26.8185 15.8427 26.6602L24.2831 8.36602C24.47 7.96172 24.3358 7.46367 23.7165 7.21172V7.21172Z" stroke="#838383" stroke-width="2" stroke-miterlimit="10"/>
<path d="M25.5692 4.84453C22.5182 3.6375 18.76 2.8125 15 2.8125C11.2401 2.8125 7.53811 3.56133 4.42268 4.80938C4.14788 4.92188 3.63284 5.18145 3.77405 5.61797L4.34124 7.03126C4.57561 7.51172 4.84925 7.51172 5.22366 7.51172C5.32854 7.51172 5.47503 7.45313 5.65022 7.38399C8.63164 6.22594 11.8016 5.62957 15 5.625C18.3258 5.625 21.733 6.32813 24.3516 7.38282C24.5619 7.46485 24.6791 7.51055 24.7782 7.51055C25.1637 7.51055 25.3864 7.63887 25.6571 7.03594L26.2295 5.625C26.3473 5.27344 25.9371 4.99102 25.5692 4.84453Z" stroke="#838383" stroke-width="2" stroke-miterlimit="10"/>
<path d="M11.25 13.125C12.2855 13.125 13.125 12.2855 13.125 11.25C13.125 10.2145 12.2855 9.375 11.25 9.375C10.2145 9.375 9.375 10.2145 9.375 11.25C9.375 12.2855 10.2145 13.125 11.25 13.125Z" fill="#838383"/>
<path d="M18.75 14.0625C19.7855 14.0625 20.625 13.223 20.625 12.1875C20.625 11.152 19.7855 10.3125 18.75 10.3125C17.7145 10.3125 16.875 11.152 16.875 12.1875C16.875 13.223 17.7145 14.0625 18.75 14.0625Z" fill="#838383"/>
<path d="M15 20.625C16.0355 20.625 16.875 19.7855 16.875 18.75C16.875 17.7145 16.0355 16.875 15 16.875C13.9645 16.875 13.125 17.7145 13.125 18.75C13.125 19.7855 13.9645 20.625 15 20.625Z" fill="#838383"/>
</svg>
