<svg width="100" height="100" viewBox="0 0 100 100" fill="none" xmlns="http://www.w3.org/2000/svg">
<path d="M88.6215 74.0676H70.0269C69.6685 74.0676 69.3248 73.9252 69.0713 73.6718C68.8179 73.4183 68.6755 73.0746 68.6755 72.7162C68.6755 72.3578 68.8179 72.0141 69.0713 71.7607C69.3248 71.5072 69.6685 71.3649 70.0269 71.3649H88.6215C88.9799 71.3649 89.3236 71.5072 89.577 71.7607C89.8305 72.0141 89.9728 72.3578 89.9728 72.7162C89.9728 73.0746 89.8305 73.4183 89.577 73.6718C89.3236 73.9252 88.9799 74.0676 88.6215 74.0676Z" fill="#6DC54A"/>
<path d="M47.1891 74.0676H32.5945C30.5154 74.0743 28.502 73.3398 26.9155 71.996C25.329 70.6522 24.2733 68.787 23.9378 66.7351L14.7743 11.7568H4.05399C3.69559 11.7568 3.35187 11.6144 3.09844 11.361C2.84501 11.1075 2.70264 10.7638 2.70264 10.4054C2.70264 10.047 2.84501 9.70328 3.09844 9.44986C3.35187 9.19643 3.69559 9.05405 4.05399 9.05405H15.9189C16.2387 9.0542 16.5482 9.16781 16.7922 9.37468C17.0361 9.58154 17.1988 9.86824 17.2513 10.1838L26.604 66.2932C26.8366 67.7127 27.5674 69.0029 28.6652 69.9324C29.763 70.8618 31.1561 71.3697 32.5945 71.3649H47.1891C47.5475 71.3649 47.8912 71.5072 48.1447 71.7607C48.3981 72.0141 48.5405 72.3578 48.5405 72.7162C48.5405 73.0746 48.3981 73.4183 48.1447 73.6718C47.8912 73.9252 47.5475 74.0676 47.1891 74.0676Z" fill="#6DC54A"/>
<path d="M60.5674 74.0676H56.6485C56.2901 74.0676 55.9464 73.9252 55.6929 73.6718C55.4395 73.4183 55.2971 73.0746 55.2971 72.7162C55.2971 72.3578 55.4395 72.0141 55.6929 71.7607C55.9464 71.5072 56.2901 71.3649 56.6485 71.3649H60.5674C60.9258 71.3649 61.2695 71.5072 61.5229 71.7607C61.7764 72.0141 61.9187 72.3578 61.9187 72.7162C61.9187 73.0746 61.7764 73.4183 61.5229 73.6718C61.2695 73.9252 60.9258 74.0676 60.5674 74.0676Z" fill="#6DC54A"/>
<path d="M69.4311 22.1487H17.6608C17.2976 22.1502 16.9482 22.0098 16.6872 21.7573C16.4261 21.5048 16.2741 21.1603 16.2635 20.7973C16.2584 20.6223 16.2884 20.4481 16.3517 20.2849C16.4149 20.1217 16.5101 19.9727 16.6317 19.8468C16.7534 19.721 16.8989 19.6206 17.0598 19.5518C17.2208 19.4829 17.3939 19.447 17.5689 19.446H69.4311C69.7895 19.446 70.1332 19.5883 70.3866 19.8418C70.64 20.0952 70.7824 20.4389 70.7824 20.7973C70.7824 21.1557 70.64 21.4994 70.3866 21.7529C70.1332 22.0063 69.7895 22.1487 69.4311 22.1487Z" fill="#6DC54A"/>
<path d="M24.4716 63.0473C24.1384 63.0472 23.8169 62.924 23.5689 62.7013C23.321 62.4785 23.1641 62.1721 23.1284 61.8407C23.0927 61.5093 23.1807 61.1765 23.3755 60.906C23.5703 60.6356 23.8582 60.4467 24.1838 60.3757L81.3351 47.8932V34.0541C81.3351 33.6957 81.4775 33.3519 81.7309 33.0985C81.9844 32.8451 82.3281 32.7027 82.6865 32.7027C83.0449 32.7027 83.3886 32.8451 83.642 33.0985C83.8955 33.3519 84.0378 33.6957 84.0378 34.0541V48.9811C84.0378 49.2895 83.9323 49.5886 83.7389 49.8287C83.5454 50.0689 83.2756 50.2357 82.9743 50.3013L24.7622 63.0162C24.6667 63.037 24.5693 63.0475 24.4716 63.0473Z" fill="#6DC54A"/>
<path d="M75.981 93.8203C74.4941 93.8203 73.0407 93.3794 71.8044 92.5533C70.5682 91.7273 69.6046 90.5532 69.0356 89.1795C68.4666 87.8059 68.3178 86.2944 68.6078 84.8361C68.8979 83.3778 69.6139 82.0383 70.6652 80.987C71.7166 79.9356 73.0561 79.2196 74.5144 78.9296C75.9726 78.6395 77.4841 78.7884 78.8578 79.3574C80.2315 79.9264 81.4056 80.8899 82.2316 82.1262C83.0576 83.3624 83.4985 84.8159 83.4985 86.3027C83.4964 88.2958 82.7037 90.2067 81.2943 91.616C79.885 93.0254 77.9741 93.8181 75.981 93.8203ZM75.981 81.4878C75.0287 81.4878 74.0978 81.7702 73.306 82.2993C72.5142 82.8283 71.897 83.5803 71.5326 84.4601C71.1682 85.3399 71.0728 86.308 71.2586 87.242C71.4444 88.176 71.903 89.0339 72.5763 89.7073C73.2497 90.3807 74.1076 90.8393 75.0416 91.025C75.9756 91.2108 76.9437 91.1155 77.8235 90.751C78.7033 90.3866 79.4553 89.7695 79.9844 88.9777C80.5134 88.1859 80.7958 87.255 80.7958 86.3027C80.7948 85.0259 80.2872 83.8017 79.3845 82.8988C78.4818 81.9958 77.2577 81.4879 75.981 81.4865V81.4878Z" fill="#6DC54A"/>
<path d="M42.6284 93.8203C41.1416 93.8203 39.6881 93.3794 38.4519 92.5533C37.2156 91.7273 36.2521 90.5532 35.6831 89.1795C35.1141 87.8059 34.9652 86.2944 35.2553 84.8361C35.5454 83.3778 36.2613 82.0383 37.3127 80.987C38.364 79.9356 39.7035 79.2196 41.1618 78.9296C42.6201 78.6395 44.1316 78.7884 45.5053 79.3574C46.8789 79.9264 48.053 80.8899 48.879 82.1262C49.7051 83.3624 50.146 84.8159 50.146 86.3027C50.1435 88.2957 49.3506 90.2064 47.9414 91.6156C46.5321 93.0249 44.6214 93.8178 42.6284 93.8203ZM42.6284 81.4878C41.6761 81.4878 40.7452 81.7702 39.9534 82.2993C39.1616 82.8283 38.5445 83.5803 38.1801 84.4601C37.8156 85.3399 37.7203 86.308 37.9061 87.242C38.0918 88.176 38.5504 89.0339 39.2238 89.7073C39.8972 90.3807 40.7551 90.8393 41.6891 91.025C42.6231 91.2108 43.5912 91.1155 44.471 90.751C45.3508 90.3866 46.1028 89.7695 46.6318 88.9777C47.1609 88.1859 47.4433 87.255 47.4433 86.3027C47.4422 85.0259 46.9346 83.8017 46.0319 82.8988C45.1292 81.9958 43.9052 81.4879 42.6284 81.4865V81.4878Z" fill="#6DC54A"/>
<path d="M66.9756 53.7581H66.8986C66.7212 53.7483 66.5476 53.7036 66.3876 53.6266C66.2275 53.5496 66.0842 53.4418 65.9659 53.3094C65.8475 53.177 65.7564 53.0226 65.6978 52.8549C65.6392 52.6873 65.6142 52.5098 65.6242 52.3325L67.4053 20.7108C67.4254 20.3524 67.587 20.0167 67.8546 19.7774C68.1223 19.5382 68.474 19.4151 68.8324 19.4351C69.1908 19.4552 69.5265 19.6168 69.7657 19.8845C70.005 20.1521 70.1281 20.5038 70.108 20.8622L68.3283 52.4838C68.3086 52.8289 68.1574 53.1534 67.9058 53.3904C67.6542 53.6274 67.3213 53.759 66.9756 53.7581Z" fill="#6DC54A"/>
<path d="M51.7823 57.0824C51.4239 57.0824 51.0801 56.94 50.8267 56.6866C50.5733 56.4332 50.4309 56.0895 50.4309 55.7311V20.7905C50.4309 20.4321 50.5733 20.0884 50.8267 19.835C51.0801 19.5816 51.4239 19.4392 51.7823 19.4392C52.1407 19.4392 52.4844 19.5816 52.7378 19.835C52.9912 20.0884 53.1336 20.4321 53.1336 20.7905V55.7311C53.1336 56.0895 52.9912 56.4332 52.7378 56.6866C52.4844 56.94 52.1407 57.0824 51.7823 57.0824Z" fill="#6DC54A"/>
<path d="M36.6917 60.3757C36.3463 60.3762 36.0137 60.2445 35.7624 60.0075C35.5111 59.7705 35.36 59.4462 35.3404 59.1013L33.1633 20.8676C33.1429 20.5092 33.2657 20.1573 33.5047 19.8895C33.7436 19.6216 34.0792 19.4596 34.4376 19.4392C34.796 19.4188 35.1479 19.5416 35.4158 19.7805C35.6836 20.0195 35.8456 20.3551 35.866 20.7135L38.0471 58.9473C38.0571 59.1245 38.0322 59.3019 37.9736 59.4695C37.9151 59.637 37.8241 59.7914 37.7059 59.9238C37.5877 60.0562 37.4446 60.164 37.2847 60.2411C37.1248 60.3181 36.9513 60.363 36.7741 60.373L36.6917 60.3757Z" fill="#6DC54A"/>
<path d="M82.6863 35.4054C79.7963 35.4057 76.9712 34.549 74.5681 32.9437C72.165 31.3383 70.2919 29.0565 69.1857 26.3866C68.0794 23.7168 67.7897 20.7789 68.3532 17.9444C68.9166 15.1099 70.3079 12.5061 72.3511 10.4623C74.3944 8.41853 76.9977 7.02651 79.8321 6.46228C82.6664 5.89805 85.6044 6.18696 88.2746 7.29246C90.9447 8.39797 93.2271 10.2704 94.8331 12.6731C96.4391 15.0757 97.2966 17.9006 97.2971 20.7905C97.2932 24.6647 95.7527 28.3792 93.0136 31.119C90.2745 33.8589 86.5605 35.4004 82.6863 35.4054ZM82.6863 8.88514C80.3306 8.88487 78.0277 9.58322 76.0689 10.8919C74.1102 12.2005 72.5835 14.0607 71.682 16.237C70.7805 18.4134 70.5447 20.8083 71.0044 23.1187C71.4641 25.4291 72.5987 27.5513 74.2646 29.2168C75.9305 30.8824 78.053 32.0164 80.3635 32.4756C82.674 32.9348 85.0688 32.6985 87.245 31.7965C89.4212 30.8945 91.281 29.3674 92.5892 27.4083C93.8974 25.4493 94.5952 23.1462 94.5944 20.7905C94.5905 17.6335 93.3346 14.6069 91.1022 12.3746C88.8699 10.1422 85.8433 8.88637 82.6863 8.88243V8.88514Z" fill="#6DC54A"/>
<path d="M80.8417 25.6013C80.4833 25.6013 80.1397 25.4588 79.8863 25.2054L76.6552 21.9743C76.5262 21.8497 76.4232 21.7005 76.3524 21.5357C76.2816 21.3708 76.2443 21.1935 76.2427 21.014C76.2412 20.8346 76.2754 20.6567 76.3433 20.4906C76.4113 20.3245 76.5116 20.1736 76.6385 20.0468C76.7654 19.9199 76.9162 19.8195 77.0823 19.7516C77.2484 19.6836 77.4263 19.6494 77.6058 19.651C77.7852 19.6526 77.9625 19.6898 78.1274 19.7607C78.2923 19.8315 78.4414 19.9344 78.566 20.0635L80.8417 22.3392L86.8052 16.3757C86.9299 16.2466 87.079 16.1437 87.2439 16.0728C87.4087 16.002 87.5861 15.9647 87.7655 15.9632C87.9449 15.9616 88.1229 15.9958 88.289 16.0637C88.455 16.1317 88.6059 16.232 88.7328 16.3589C88.8597 16.4858 88.96 16.6367 89.028 16.8028C89.0959 16.9688 89.1301 17.1468 89.1286 17.3262C89.127 17.5056 89.0897 17.683 89.0189 17.8478C88.9481 18.0127 88.8451 18.1618 88.716 18.2865L81.7971 25.2054C81.672 25.3313 81.5231 25.4311 81.3591 25.4991C81.1951 25.5671 81.0192 25.6018 80.8417 25.6013Z" fill="#6DC54A"/>
</svg>
